<svg id="Component_4_8" data-name="Component 4 – 8" xmlns="http://www.w3.org/2000/svg" xmlns:xlink="http://www.w3.org/1999/xlink" width="13" height="12" viewBox="0 0 13 12">
  <defs>
    <clipPath id="clip-path">
      <rect id="Rectangle_10826" data-name="Rectangle 10826" width="13" height="12" transform="translate(0 0)" fill="#1f263a"/>
    </clipPath>
  </defs>
  <g id="Group_41404" data-name="Group 41404" transform="translate(0 0)" clip-path="url(#clip-path)">
    <path id="Path_62454" data-name="Path 62454" d="M6.319,11.074A.632.632,0,0,1,6,10.986C2.929,9.171-.469,5.946.053,2.828A3.363,3.363,0,0,1,2.835.056,3.713,3.713,0,0,1,6.319,1.338,3.687,3.687,0,0,1,9.7.051,3.466,3.466,0,0,1,12.58,2.807c.623,3.071-2.659,6.239-5.939,8.179a.632.632,0,0,1-.322.088M3.451,1.269a2.3,2.3,0,0,0-.4.034A2.092,2.092,0,0,0,1.3,3.037C.927,5.278,3.5,7.954,6.319,9.7,9,8.042,11.813,5.388,11.34,3.059A2.211,2.211,0,0,0,9.5,1.3,2.557,2.557,0,0,0,6.87,2.742a.633.633,0,0,1-1.1,0A2.65,2.65,0,0,0,3.451,1.269" transform="translate(0.206 0.179)" fill="#1f263a"/>
    <path id="Path_65025" data-name="Path 65025" d="M1.569,1.806l.625-.575,1.25-.35,1.05.35s.925.45,1.075.575.925.7.925.7l.5-.7a4.052,4.052,0,0,1,.875-.575c.2-.025,1.025-.425,1.125-.35a13.94,13.94,0,0,0,1.375.35l.8.575.575.7.3.8a4.437,4.437,0,0,0,0,1,.663.663,0,0,1,0,.575,7.51,7.51,0,0,0-.3,1.1,2.378,2.378,0,0,1-.575.75c-.4.35-1.275,1.25-1.275,1.25S8.369,9.231,8.219,9.356s-1.725,1.225-1.725,1.225l-2-1.225-2.3-2.325L.944,5.156.669,3.831.944,2.806Z" fill="#1f263a"/>
  </g>
</svg>
