<svg xmlns="http://www.w3.org/2000/svg" xmlns:xlink="http://www.w3.org/1999/xlink" width="24" height="24" viewBox="0 0 24 24">
  <defs>
    <clipPath id="clip-path">
      <rect id="Rectangle_10680" data-name="Rectangle 10680" width="19.38" height="19.633" fill="none"/>
    </clipPath>
  </defs>
  <g id="Group_42035" data-name="Group 42035" transform="translate(-333 -143)">
    <rect id="Rectangle_11355" data-name="Rectangle 11355" width="24" height="24" transform="translate(333 143)" fill="none"/>
    <g id="Group_41244" data-name="Group 41244" transform="translate(335.31 145.184)">
      <g id="Group_41243" data-name="Group 41243" clip-path="url(#clip-path)">
        <path id="Path_61955" data-name="Path 61955" d="M5.095,11.23a1.007,1.007,0,0,1-1.007-1.007V1.007a1.007,1.007,0,0,1,2.014,0v9.217A1.007,1.007,0,0,1,5.095,11.23" transform="translate(-2.03)" fill="#fff"/>
        <path id="Path_61956" data-name="Path 61956" d="M5.095,31.827A1.007,1.007,0,0,1,4.088,30.82V25.563a1.007,1.007,0,0,1,2.014,0V30.82a1.007,1.007,0,0,1-1.007,1.007" transform="translate(-2.03 -12.195)" fill="#fff"/>
        <path id="Path_61957" data-name="Path 61957" d="M31.68,12.584a1.007,1.007,0,0,1-1.007-1.007V1.007a1.007,1.007,0,0,1,2.014,0v10.57a1.007,1.007,0,0,1-1.007,1.007" transform="translate(-15.232)" fill="#fff"/>
        <path id="Path_61958" data-name="Path 61958" d="M31.68,33.153a1.007,1.007,0,0,1-1.007-1.007V28.232a1.007,1.007,0,1,1,2.014,0v3.914a1.007,1.007,0,0,1-1.007,1.007" transform="translate(-15.232 -13.52)" fill="#fff"/>
        <path id="Path_61959" data-name="Path 61959" d="M18.387,3.774A1.007,1.007,0,0,1,17.38,2.768V1.007a1.007,1.007,0,0,1,2.014,0V2.768a1.007,1.007,0,0,1-1.007,1.007" transform="translate(-8.631)" fill="#fff"/>
        <path id="Path_61960" data-name="Path 61960" d="M18.387,24.605A1.007,1.007,0,0,1,17.38,23.6V11.02a1.007,1.007,0,1,1,2.014,0V23.6a1.007,1.007,0,0,1-1.007,1.007" transform="translate(-8.631 -4.972)" fill="#fff"/>
        <path id="Path_61961" data-name="Path 61961" d="M4.626,20.325H1.241a1.241,1.241,0,0,1,0-2.482H4.626a1.241,1.241,0,0,1,0,2.482" transform="translate(0 -8.861)" fill="#fff"/>
        <path id="Path_61962" data-name="Path 61962" d="M31.471,23.035H28.086a1.241,1.241,0,0,1,0-2.482h3.385a1.241,1.241,0,1,1,0,2.482" transform="translate(-13.332 -10.207)" fill="#fff"/>
        <path id="Path_61963" data-name="Path 61963" d="M18.179,11.171H14.794a1.241,1.241,0,0,1,0-2.482h3.385a1.241,1.241,0,1,1,0,2.482" transform="translate(-6.731 -4.315)" fill="#fff"/>
      </g>
    </g>
  </g>
</svg>
