<svg id="Group_42153" data-name="Group 42153" xmlns="http://www.w3.org/2000/svg" width="11" height="11" viewBox="0 0 11 11">
  <path id="Path_66835" data-name="Path 66835" d="M0,0H11V11H0Z" fill="none"/>
  <path id="Path_66836" data-name="Path 66836" d="M9,12.375c0,.759,1.231,1.375,2.75,1.375s2.75-.616,2.75-1.375S13.269,11,11.75,11,9,11.616,9,12.375Z" transform="translate(-4.875 -5.958)" fill="none" stroke="#B60615" stroke-linecap="round" stroke-linejoin="round" stroke-width="0.5"/>
  <path id="Path_66837" data-name="Path 66837" d="M9,14v1.833c0,.759,1.231,1.375,2.75,1.375s2.75-.616,2.75-1.375V14" transform="translate(-4.875 -7.583)" fill="none" stroke="#B60615" stroke-linecap="round" stroke-linejoin="round" stroke-width="0.5"/>
  <path id="Path_66838" data-name="Path 66838" d="M3,4.375c0,.491.524.945,1.375,1.191a5.223,5.223,0,0,0,2.75,0C7.976,5.32,8.5,4.866,8.5,4.375S7.976,3.43,7.125,3.184a5.223,5.223,0,0,0-2.75,0C3.524,3.43,3,3.884,3,4.375Z" transform="translate(-1.625 -1.625)" fill="none" stroke="#B60615" stroke-linecap="round" stroke-linejoin="round" stroke-width="0.5"/>
  <path id="Path_66839" data-name="Path 66839" d="M3,6v4.583c0,.407.354.665.917.917" transform="translate(-1.625 -3.25)" fill="none" stroke="#B60615" stroke-linecap="round" stroke-linejoin="round" stroke-width="0.5"/>
  <path id="Path_66840" data-name="Path 66840" d="M3,11c0,.407.354.665.917.917" transform="translate(-1.625 -5.958)" fill="none" stroke="#B60615" stroke-linecap="round" stroke-linejoin="round" stroke-width="0.5"/>
</svg>
