<svg xmlns="http://www.w3.org/2000/svg" xmlns:xlink="http://www.w3.org/1999/xlink" width="20.262" height="20.5" viewBox="0 0 20.262 20.5">
  <defs>
    <clipPath id="clip-path">
      <rect id="Rectangle_10673" data-name="Rectangle 10673" width="19.565" height="19.565" fill="none"/>
    </clipPath>
  </defs>
  <g id="Group_41227" data-name="Group 41227" transform="translate(-124.048 -145.478)">
    <path id="Path_61903" data-name="Path 61903" d="M55.041,59.786a4.748,4.748,0,1,1,4.749-4.748,4.753,4.753,0,0,1-4.749,4.748m0-7.54a2.792,2.792,0,1,0,2.792,2.792,2.8,2.8,0,0,0-2.792-2.792" transform="translate(79.487 100.222)" fill="#1f263a"/>
    <path id="Path_61904" data-name="Path 61904" d="M58.978,43.923A.979.979,0,0,1,58,42.945V40.978a.978.978,0,0,1,1.957,0v1.967a.979.979,0,0,1-.978.978" transform="translate(75.55 105.478)" fill="#b60615"/>
    <path id="Path_61905" data-name="Path 61905" d="M58.978,75.9A.979.979,0,0,1,58,74.924V72.957a.978.978,0,1,1,1.957,0v1.967a.979.979,0,0,1-.978.978" transform="translate(75.55 89.141)" fill="#b60615"/>
    <path id="Path_61906" data-name="Path 61906" d="M42.945,59.957H40.978a.978.978,0,0,1,0-1.957h1.967a.978.978,0,1,1,0,1.957" transform="translate(84.745 96.282)" fill="#b60615"/>
    <path id="Path_61907" data-name="Path 61907" d="M74.923,59.957H72.956a.978.978,0,1,1,0-1.957h1.967a.978.978,0,0,1,0,1.957" transform="translate(68.409 96.282)" fill="#b60615"/>
    <path id="Path_61908" data-name="Path 61908" d="M68.862,48.62a.978.978,0,0,1-.692-1.67l1.391-1.391a.978.978,0,0,1,1.383,1.383l-1.391,1.391a.974.974,0,0,1-.692.287" transform="translate(70.5 102.784)" fill="#b60615"/>
    <path id="Path_61909" data-name="Path 61909" d="M46.25,71.232a.978.978,0,0,1-.692-1.67l1.391-1.391a.978.978,0,0,1,1.383,1.383l-1.391,1.391a.974.974,0,0,1-.692.287" transform="translate(82.052 91.233)" fill="#b60615"/>
    <path id="Path_61910" data-name="Path 61910" d="M47.642,48.619a.974.974,0,0,1-.692-.287l-1.391-1.391a.978.978,0,0,1,1.383-1.383l1.391,1.391a.978.978,0,0,1-.692,1.67" transform="translate(82.052 102.784)" fill="#b60615"/>
    <path id="Path_61911" data-name="Path 61911" d="M70.253,71.231a.974.974,0,0,1-.692-.287l-1.391-1.391a.978.978,0,0,1,1.383-1.383l1.391,1.391a.978.978,0,0,1-.692,1.67" transform="translate(70.5 91.233)" fill="#b60615"/>
    <g id="Group_41226" data-name="Group 41226" transform="translate(124.048 146.412)" opacity="0.1">
      <g id="Group_41225" data-name="Group 41225" transform="translate(0 0)">
        <g id="Group_41224" data-name="Group 41224" clip-path="url(#clip-path)">
          <path id="Path_61912" data-name="Path 61912" d="M53.616,61.7a4.748,4.748,0,1,1,4.749-4.748A4.753,4.753,0,0,1,53.616,61.7m0-7.54a2.792,2.792,0,1,0,2.792,2.792,2.8,2.8,0,0,0-2.792-2.792" transform="translate(-43.833 -47.167)" fill="#4a4a4a"/>
          <path id="Path_61913" data-name="Path 61913" d="M57.553,45.834a.979.979,0,0,1-.978-.978V42.889a.978.978,0,0,1,1.957,0v1.967a.979.979,0,0,1-.978.978" transform="translate(-47.77 -41.911)" fill="#4a4a4a"/>
          <path id="Path_61914" data-name="Path 61914" d="M57.553,77.813a.979.979,0,0,1-.978-.978V74.868a.978.978,0,0,1,1.957,0v1.967a.979.979,0,0,1-.978.978" transform="translate(-47.77 -58.248)" fill="#4a4a4a"/>
          <path id="Path_61915" data-name="Path 61915" d="M41.52,61.868H39.553a.978.978,0,1,1,0-1.957H41.52a.978.978,0,1,1,0,1.957" transform="translate(-38.575 -51.106)" fill="#4a4a4a"/>
          <path id="Path_61916" data-name="Path 61916" d="M73.5,61.868H71.532a.978.978,0,1,1,0-1.957H73.5a.978.978,0,1,1,0,1.957" transform="translate(-54.912 -51.106)" fill="#4a4a4a"/>
          <path id="Path_61917" data-name="Path 61917" d="M67.437,50.531a.978.978,0,0,1-.692-1.67l1.391-1.391a.978.978,0,0,1,1.383,1.383l-1.391,1.391a.974.974,0,0,1-.691.287" transform="translate(-52.82 -44.604)" fill="#4a4a4a"/>
          <path id="Path_61918" data-name="Path 61918" d="M44.824,73.143a.978.978,0,0,1-.692-1.67l1.391-1.391a.978.978,0,1,1,1.383,1.383l-1.391,1.391a.974.974,0,0,1-.692.287" transform="translate(-41.268 -56.156)" fill="#4a4a4a"/>
          <path id="Path_61919" data-name="Path 61919" d="M46.216,50.531a.974.974,0,0,1-.692-.287l-1.391-1.391a.978.978,0,0,1,1.383-1.383l1.391,1.391a.978.978,0,0,1-.692,1.67" transform="translate(-41.268 -44.604)" fill="#4a4a4a"/>
          <path id="Path_61920" data-name="Path 61920" d="M68.828,73.143a.974.974,0,0,1-.692-.287l-1.391-1.391a.978.978,0,1,1,1.383-1.383l1.391,1.391a.978.978,0,0,1-.692,1.67" transform="translate(-52.82 -56.156)" fill="#4a4a4a"/>
        </g>
      </g>
    </g>
  </g>
</svg>
